<mxfile host="app.diagrams.net" modified="2021-03-05T08:15:25.307Z" agent="5.0 (Macintosh; Intel Mac OS X 11_2_2) AppleWebKit/537.36 (KHTML, like Gecko) Chrome/88.0.4324.146 Safari/537.36" etag="V59lV8q-jrorP9I5EuVR" version="14.2.9" type="github">
  <diagram id="tDews6ExoYdrooIenhkO" name="Page-1">
    <mxGraphModel dx="466" dy="744" grid="1" gridSize="10" guides="1" tooltips="1" connect="1" arrows="1" fold="1" page="1" pageScale="1" pageWidth="827" pageHeight="1169" math="0" shadow="0">
      <root>
        <mxCell id="0" />
        <mxCell id="1" parent="0" />
        <mxCell id="2E7dKMAGasW1I6vGNaWA-1" value="" style="shape=process;whiteSpace=wrap;html=1;backgroundOutline=1;" vertex="1" parent="1">
          <mxGeometry x="20" y="240" width="120" height="60" as="geometry" />
        </mxCell>
        <mxCell id="2E7dKMAGasW1I6vGNaWA-2" value="" style="shape=cube;whiteSpace=wrap;html=1;boundedLbl=1;backgroundOutline=1;darkOpacity=0.05;darkOpacity2=0.1;" vertex="1" parent="1">
          <mxGeometry x="30" y="370" width="120" height="80" as="geometry" />
        </mxCell>
        <mxCell id="2E7dKMAGasW1I6vGNaWA-3" value="" style="endArrow=classic;html=1;exitX=0.5;exitY=1;exitDx=0;exitDy=0;entryX=0;entryY=0;entryDx=50;entryDy=0;entryPerimeter=0;" edge="1" parent="1" source="2E7dKMAGasW1I6vGNaWA-1" target="2E7dKMAGasW1I6vGNaWA-2">
          <mxGeometry width="50" height="50" relative="1" as="geometry">
            <mxPoint x="70" y="440" as="sourcePoint" />
            <mxPoint x="120" y="390" as="targetPoint" />
          </mxGeometry>
        </mxCell>
      </root>
    </mxGraphModel>
  </diagram>
</mxfile>
